<svg width="24" height="24" viewBox="0 0 24 24" fill="none" xmlns="http://www.w3.org/2000/svg">
<path opacity="0.3" d="M21 9.175C21 5.935 19.3369 3.5 15.8846 3.5H8.5C5.03846 3.5 3 5.935 3 9.175V16.825C3 20.056 4.84615 22 8.30769 22H10.6923L21 11.825V9.175Z" fill="#A1C038"/>
<path d="M12 21.25H8C5.1 21.25 3.75 19.79 3.75 17V8.5C3.75 5.7 5.1 4.25 8 4.25H16C18.89 4.25 20.25 5.7 20.25 8.5V12C20.25 12.41 20.58 12.75 21 12.75C21.41 12.75 21.75 12.41 21.75 12V8.5C21.75 4.9 19.74 2.75 16 2.75H8C4.25 2.75 2.25 4.9 2.25 8.5V17C2.25 20.59 4.25 22.75 8 22.75H12C12.41 22.75 12.75 22.41 12.75 22C12.75 21.58 12.41 21.25 12 21.25Z" fill="#A1C038"/>
<path fill-rule="evenodd" clip-rule="evenodd" d="M7.25 2V5C7.25 5.41 7.58 5.75 8 5.75C8.41 5.75 8.75 5.41 8.75 5V2C8.75 1.58 8.41 1.25 8 1.25C7.58 1.25 7.25 1.58 7.25 2ZM15.25 2V5C15.25 5.41 15.58 5.75 16 5.75C16.41 5.75 16.75 5.41 16.75 5V2C16.75 1.58 16.41 1.25 16 1.25C15.58 1.25 15.25 1.58 15.25 2ZM8 12.95H15C15.41 12.95 15.75 12.61 15.75 12.2C15.75 11.78 15.41 11.45 15 11.45H8C7.58 11.45 7.25 11.78 7.25 12.2C7.25 12.61 7.58 12.95 8 12.95ZM8 16.95H12.38C12.79 16.95 13.13 16.61 13.13 16.2C13.13 15.78 12.79 15.45 12.38 15.45H8C7.58 15.45 7.25 15.78 7.25 16.2C7.25 16.61 7.58 16.95 8 16.95ZM15.13 18.77L18.67 15.23C19.4 14.5 20.694 13.974 21.9 15.18C23.01 16.3 22.9 17.46 21.9 18.47L18.38 22C18.14 22.27 17.71 22.48 17.35 22.54L16.01 22.73C15.03 22.87 14.26 22.11 14.41 21.13L14.61 19.77C14.67 19.42 14.87 19.02 15.13 18.77ZM20.87 16.28C20.4 15.8 20.18 15.83 19.73 16.29L19.2897 16.718C19.518 17.2294 19.9567 17.6266 20.5039 17.794L20.87 17.43C21.32 16.97 21.35 16.76 20.87 16.28ZM16.15 19.77L18.3949 17.5878C18.683 18.0594 19.0907 18.4481 19.58 18.7127L17.32 20.96C17.29 20.98 17.18 21.04 17.14 21.04L15.8929 21.2075L16.07 19.94C16.07 19.91 16.13 19.8 16.15 19.77ZM15.8 21.22C15.8 21.219 15.8007 21.219 15.8021 21.2197L15.8 21.22Z" fill="#004A2C"/>
</svg>
