<svg width="24" height="24" viewBox="0 0 24 24" fill="none" xmlns="http://www.w3.org/2000/svg">
<path opacity="0.2" d="M21 8.4625C21 5.0425 19.1446 3.5 15.6923 3.5H8.30769C4.84615 3.5 3 5.0425 3 8.4625V16.5375C3 19.948 4.84615 22 8.30769 22H15.6923C19.1446 22 21 19.948 21 16.5375V8.4625Z" fill="#A1C038"/>
<path d="M3.5 9.82996H20.5C20.91 9.82996 21.25 9.48996 21.25 9.07996C21.25 8.65996 20.91 8.32996 20.5 8.32996H3.5C3.08 8.32996 2.75 8.65996 2.75 9.07996C2.75 9.48996 3.08 9.82996 3.5 9.82996Z" fill="#A1C038"/>
<path fill-rule="evenodd" clip-rule="evenodd" d="M7.25 4.28561V5C7.25 5.41 7.58 5.75 8 5.75C8.41 5.75 8.75 5.41 8.75 5V4.25H15.25V5C15.25 5.41 15.58 5.75 16 5.75C16.41 5.75 16.75 5.41 16.75 5V4.28584C19.1259 4.52464 20.25 5.95441 20.25 8.5V17C20.25 19.79 18.89 21.25 16 21.25H8C5.1 21.25 3.75 19.79 3.75 17V8.5C3.75 5.95361 4.86652 4.52374 7.25 4.28561ZM7.25 2.78038C3.98394 3.0531 2.25 5.148 2.25 8.5V17C2.25 20.59 4.25 22.75 8 22.75H16C19.74 22.75 21.75 20.59 21.75 17V8.5C21.75 5.14861 20.008 3.05387 16.75 2.78053V2C16.75 1.58 16.41 1.25 16 1.25C15.58 1.25 15.25 1.58 15.25 2V2.75H8.75V2C8.75 1.58 8.41 1.25 8 1.25C7.58 1.25 7.25 1.58 7.25 2V2.78038Z" fill="#A1C038"/>
<path d="M15.6902 14.7C16.2402 14.7 16.6902 14.25 16.6902 13.7C16.6902 13.14 16.2402 12.7 15.6902 12.7H15.6802C15.1202 12.7 14.6802 13.14 14.6802 13.7C14.6802 14.25 15.1202 14.7 15.6802 14.7H15.6902Z" fill="#004A2C"/>
<path d="M15.6902 17.7C16.2402 17.7 16.6902 17.25 16.6902 16.7C16.6902 16.14 16.2402 15.7 15.6902 15.7H15.6802C15.1202 15.7 14.6802 16.14 14.6802 16.7C14.6802 17.25 15.1202 17.7 15.6802 17.7H15.6902Z" fill="#004A2C"/>
<path d="M11.99 14.7C12.54 14.7 12.99 14.25 12.99 13.7C12.99 13.14 12.54 12.7 11.99 12.7H11.98C11.42 12.7 10.98 13.14 10.98 13.7C10.98 14.25 11.42 14.7 11.98 14.7H11.99Z" fill="#004A2C"/>
<path d="M11.99 17.7C12.54 17.7 12.99 17.25 12.99 16.7C12.99 16.14 12.54 15.7 11.99 15.7H11.98C11.42 15.7 10.98 16.14 10.98 16.7C10.98 17.25 11.42 17.7 11.98 17.7H11.99Z" fill="#004A2C"/>
<path d="M8.28978 14.7C8.83978 14.7 9.28978 14.25 9.28978 13.7C9.28978 13.14 8.83978 12.7 8.28978 12.7H8.27978C7.71978 12.7 7.27979 13.14 7.27979 13.7C7.27979 14.25 7.71978 14.7 8.27978 14.7H8.28978Z" fill="#004A2C"/>
<path d="M8.28978 17.7C8.83978 17.7 9.28978 17.25 9.28978 16.7C9.28978 16.14 8.83978 15.7 8.28978 15.7H8.27978C7.71978 15.7 7.27979 16.14 7.27979 16.7C7.27979 17.25 7.71978 17.7 8.27978 17.7H8.28978Z" fill="#004A2C"/>
</svg>
