<svg width="24" height="24" viewBox="0 0 24 24" fill="none" xmlns="http://www.w3.org/2000/svg">
<path d="M16.1299 8.34998C16.4199 8.93998 17.1199 9.45998 17.7899 9.58998L20.3499 10.01C21.3699 10.18 21.5199 10.62 20.7699 11.37L18.7799 13.35C18.2599 13.86 17.9999 14.78 18.1699 15.5L18.7299 17.95C19.0299 19.24 18.6799 19.49 17.5399 18.81L15.1399 17.38C14.4699 16.97 13.4499 16.97 12.7799 17.38L10.3899 18.79C9.23993 19.46 8.89992 19.21 9.19992 17.92L9.76993 15.45C9.92993 14.74 9.66992 13.83 9.15992 13.3L7.15992 11.3C6.41992 10.56 6.55993 10.11 7.58993 9.92998L10.1299 9.50998C10.7899 9.39998 11.5099 8.85998 11.8099 8.24998L13.2099 5.42998C13.6799 4.44998 14.1299 4.44998 14.6199 5.42998L16.1299 8.34998ZM16.0599 4.85998C15.0099 2.76998 12.9799 2.76998 11.9499 4.85998L10.5399 7.66998C10.4499 7.83998 10.1399 8.06998 9.95993 8.09998L7.39993 8.51998C5.15993 8.89998 4.54993 10.82 6.14993 12.42L8.12993 14.4C8.26993 14.55 8.37993 14.94 8.33993 15.14L7.75993 17.6C7.15993 20.18 8.88993 21.44 11.1699 20.09L13.5599 18.66C13.7499 18.54 14.1699 18.54 14.3599 18.65L16.7499 20.07C19.0199 21.42 20.7599 20.15 20.1599 17.57L19.5899 15.11C19.5299 14.89 19.6499 14.5 19.7899 14.35L21.7799 12.36C23.3699 10.74 22.7599 8.81998 20.5299 8.44998L17.9699 8.01998C17.7699 7.97998 17.4699 7.74998 17.3899 7.58998L16.0599 4.85998Z" fill="#A1C038"/>
<path opacity="0.3" d="M15.9275 5.44587C14.9631 3.51804 13.0985 3.51804 12.1525 5.44587L10.8574 8.03782C10.7747 8.19463 10.49 8.40678 10.3247 8.43446L7.97334 8.82187C5.91592 9.17238 5.35564 10.9434 6.82523 12.4192L8.64384 14.2456C8.77243 14.384 8.87347 14.7437 8.83673 14.9282L8.304 17.1973C7.75291 19.5771 9.3419 20.7393 11.4361 19.4941L13.6313 18.175C13.8058 18.0644 14.1915 18.0644 14.3661 18.1658L16.5612 19.4756C18.6462 20.7209 20.2444 19.5494 19.6933 17.1696L19.1698 14.9005C19.1147 14.6976 19.2249 14.3378 19.3535 14.1995L21.1813 12.3639C22.6417 10.8696 22.0814 9.09859 20.0332 8.7573L17.6818 8.36066C17.4981 8.32377 17.2226 8.11161 17.1491 7.96403L15.9275 5.44587Z" fill="#A1C038"/>
<path d="M8 4.25H2C1.58 4.25 1.25 4.58 1.25 5C1.25 5.41 1.58 5.75 2 5.75H8C8.41 5.75 8.75 5.41 8.75 5C8.75 4.58 8.41 4.25 8 4.25Z" fill="#004A2C"/>
<path d="M5 18.25H2C1.58 18.25 1.25 18.58 1.25 19C1.25 19.41 1.58 19.75 2 19.75H5C5.41 19.75 5.75 19.41 5.75 19C5.75 18.58 5.41 18.25 5 18.25Z" fill="#004A2C"/>
<path d="M3 11.25H2C1.58 11.25 1.25 11.58 1.25 12C1.25 12.41 1.58 12.75 2 12.75H3C3.41 12.75 3.75 12.41 3.75 12C3.75 11.58 3.41 11.25 3 11.25Z" fill="#004A2C"/>
</svg>
