<svg width="80" height="80" viewBox="0 0 80 80" fill="none" xmlns="http://www.w3.org/2000/svg">
<g clip-path="url(#clip0_6284_235695)">
<path d="M49.7221 16.0273C43.4794 24.5031 42.397 36.0703 47.9038 45.6085C53.4107 55.1467 63.9695 59.9928 74.431 58.8245C72.2066 61.8446 69.327 64.4723 65.8569 66.4758C52.6482 74.1018 35.8855 69.7965 28.4163 56.8596C20.9472 43.9227 25.6 27.2531 38.8087 19.6271C42.2789 17.6236 45.9943 16.4436 49.7221 16.0273Z" fill="url(#paint0_linear_6284_235695)"/>
<path d="M40.878 62.6174C40.9921 61.9765 41.0515 61.3172 41.0515 60.6443C41.0515 54.3492 35.8481 49.2461 29.4294 49.2461C24.6576 49.2461 20.5575 52.0664 18.7676 56.1001C17.3176 54.8723 15.436 54.131 13.3798 54.131C8.79495 54.131 5.07823 57.8166 5.07823 62.3631C5.07823 62.6162 5.08976 62.8667 5.11232 63.1141C2.90711 64.1734 1.38867 66.3962 1.38867 68.9668C1.38867 72.564 4.36204 75.48 8.02989 75.48H39.3912C43.0591 75.48 46.0324 72.564 46.0324 68.9668C46.0324 65.8709 43.8301 63.2795 40.878 62.6174Z" fill="url(#paint1_linear_6284_235695)"/>
<path d="M52.8822 4.23018C50.4623 5.3048 49.5178 6.21294 48.6521 8.46036C47.9626 6.28236 47.1148 5.31088 44.4219 4.23018C47.1921 3.32761 47.9439 2.28278 48.6521 0C49.5222 2.10392 50.0596 3.25216 52.8822 4.23018Z" fill="url(#paint2_linear_6284_235695)"/>
<path d="M25.267 23.5603C22.847 24.6349 21.9025 25.5431 21.0368 27.7905C20.3474 25.6125 19.4996 24.641 16.8066 23.5603C19.5769 22.6577 20.3287 21.6129 21.0368 19.3301C21.907 21.434 22.4444 22.5823 25.267 23.5603Z" fill="url(#paint3_linear_6284_235695)"/>
<path d="M67.1499 41.9704C64.73 43.045 63.7854 43.9531 62.9197 46.2006C62.2303 44.0226 61.3825 43.0511 58.6895 41.9704C61.4598 41.0678 62.2116 40.023 62.9197 37.7402C63.7899 39.8441 64.3273 40.9924 67.1499 41.9704Z" fill="url(#paint4_linear_6284_235695)"/>
</g>
<defs>
<linearGradient id="paint0_linear_6284_235695" x1="51.0814" y1="11.5323" x2="41.171" y2="71.5402" gradientUnits="userSpaceOnUse">
<stop stop-color="#FFEE94"/>
<stop offset="1" stop-color="#FF9900"/>
</linearGradient>
<linearGradient id="paint1_linear_6284_235695" x1="4.2282" y1="73.1377" x2="48.9367" y2="39.3623" gradientUnits="userSpaceOnUse">
<stop stop-color="white"/>
<stop offset="1" stop-color="white" stop-opacity="0.58"/>
</linearGradient>
<linearGradient id="paint2_linear_6284_235695" x1="47.4283" y1="8.85676" x2="51.4098" y2="1.38133" gradientUnits="userSpaceOnUse">
<stop stop-color="#FF9900"/>
<stop offset="1" stop-color="#FFEE94"/>
</linearGradient>
<linearGradient id="paint3_linear_6284_235695" x1="19.813" y1="28.1869" x2="23.7945" y2="20.7115" gradientUnits="userSpaceOnUse">
<stop stop-color="#FF9900"/>
<stop offset="1" stop-color="#FFEE94"/>
</linearGradient>
<linearGradient id="paint4_linear_6284_235695" x1="61.696" y1="46.597" x2="65.6774" y2="39.1215" gradientUnits="userSpaceOnUse">
<stop stop-color="#FF9900"/>
<stop offset="1" stop-color="#FFEE94"/>
</linearGradient>
<clipPath id="clip0_6284_235695">
<rect width="80" height="80" fill="white"/>
</clipPath>
</defs>
</svg>
