<svg width="24" height="24" viewBox="0 0 24 24" fill="none" xmlns="http://www.w3.org/2000/svg">
<path opacity="0.3" fill-rule="evenodd" clip-rule="evenodd" d="M15.0042 2.40074C15.1007 2.30458 15.4015 2.00445 15.8451 2.00006C16.1651 1.99689 16.4952 2.12428 16.7695 2.40281C17.0319 2.66929 17.2152 3.04382 17.3338 3.50424L20.3786 15.323C20.4245 15.5009 20.4903 15.9479 20.4477 16.3701C20.4272 16.5746 20.3719 16.882 20.187 17.1457C20.0866 17.2889 19.9429 17.4259 19.7477 17.5121C19.5522 17.5984 19.3499 17.6139 19.1626 17.5862C18.5325 17.4933 15.092 16.6807 13.1975 16.2263C13.0818 16.1986 12.9619 16.2007 12.8476 16.2327L6.53029 17.9932C6.04357 18.1289 5.47816 18.0997 4.98505 17.795C2.11059 16.0191 1.10058 12.267 2.8939 9.43661C3.17937 8.98605 3.61513 8.71983 4.04556 8.5999L10.4154 6.8247C10.5322 6.79217 10.6392 6.72965 10.7267 6.6429L14.9952 2.40988C14.998 2.40708 15.001 2.40403 15.0042 2.40074Z" fill="#A1C038"/>
<path fill-rule="evenodd" clip-rule="evenodd" d="M11.7272 7.73419L15.8511 3.64449C15.8771 3.70559 15.9057 3.78711 15.9334 3.89451L18.9783 15.7132L18.9786 15.715L18.9788 15.7162C18.9815 15.7303 18.9939 15.7956 19.0029 15.8959C19.0068 15.9394 19.0095 15.9833 19.0109 16.0264C17.9557 15.8092 15.2125 15.162 13.5231 14.757C13.1767 14.6739 12.816 14.6804 12.4723 14.7762L6.15505 16.5367C5.97584 16.5867 5.82512 16.5602 5.7255 16.4986C3.48189 15.1125 2.81621 12.2996 4.1045 10.2663C4.15627 10.1846 4.25921 10.1014 4.4208 10.0564L10.7907 8.28119C11.142 8.18333 11.464 7.99526 11.7272 7.73419ZM15.0043 2.40063L15.0042 2.40074L14.9952 2.40988L10.7267 6.6429C10.6392 6.72965 10.5322 6.79217 10.4154 6.8247L4.04556 8.5999C3.61513 8.71983 3.17937 8.98605 2.8939 9.43661C1.10058 12.267 2.11059 16.0191 4.98505 17.795C5.47816 18.0997 6.04357 18.1289 6.53029 17.9932L7.66129 17.678L8.61937 21.2407C8.66787 21.421 8.78573 21.5751 8.94737 21.6695C9.58501 22.0422 10.3521 22.0714 11.0068 21.8967C11.6616 21.7218 12.3112 21.3144 12.6764 20.6739C12.769 20.5116 12.7937 20.3195 12.7452 20.1392L11.7751 16.5316L12.8476 16.2327C12.9619 16.2007 13.0818 16.1986 13.1975 16.2263C15.092 16.6807 18.5325 17.4933 19.1626 17.5862C19.3499 17.6139 19.5522 17.5984 19.7477 17.5121C19.9429 17.4259 20.0866 17.2889 20.187 17.1457C20.3719 16.882 20.4272 16.5746 20.4477 16.3701C20.4903 15.9479 20.4245 15.5009 20.3786 15.323L17.3338 3.50424C17.2152 3.04382 17.0319 2.66929 16.7695 2.40281C16.4952 2.12428 16.1651 1.99689 15.8451 2.00006C15.4016 2.00445 15.1009 2.30435 15.0043 2.40063ZM9.03454 17.2953L10.4018 16.9143L11.2784 20.1742C11.1236 20.3262 10.9026 20.4537 10.6378 20.5244C10.3729 20.5951 10.1176 20.5948 9.90715 20.5402L9.03454 17.2953Z" fill="#A1C038"/>
<path fill-rule="evenodd" clip-rule="evenodd" d="M17.9671 5.90316C17.5726 5.99158 17.3186 6.41115 17.3999 6.84031C17.4811 7.26946 17.8669 7.54568 18.2613 7.45726C18.5638 7.3895 19.0597 7.38073 19.5036 7.56901C19.9106 7.74167 20.2923 8.08238 20.4695 8.80174C20.6467 9.52109 20.4727 10.0238 20.1995 10.3948C19.9016 10.7992 19.4681 11.0614 19.1752 11.1672C18.7929 11.3052 18.5858 11.7542 18.7127 12.17C18.8396 12.5859 19.2523 12.8112 19.6346 12.6732C20.1338 12.4929 20.8278 12.0796 21.3378 11.3868C21.8727 10.6607 22.1871 9.64438 21.8784 8.3911C21.5697 7.13775 20.8303 6.42872 20.0333 6.09066C19.2732 5.76822 18.4822 5.7877 17.9671 5.90316ZM6.38005 11.8758C5.99593 11.9924 5.76798 12.4394 5.87091 12.8744C5.97383 13.3093 6.36865 13.5674 6.75277 13.4509L11.4661 12.0209C11.8503 11.9043 12.0783 11.4572 11.9753 11.0223C11.8724 10.5875 11.4775 10.3293 11.0935 10.4458L6.38005 11.8758Z" fill="#004A2C"/>
</svg>
