<svg width="24" height="24" viewBox="0 0 24 24" fill="none" xmlns="http://www.w3.org/2000/svg">
<path opacity="0.3" d="M4.17346 15.0258C4.26634 15.1187 4.38709 15.4064 4.38709 15.5643V17.5509C4.38709 18.7485 5.36236 19.7325 6.56984 19.7325H8.55753C8.70614 19.7325 9.00337 19.8532 9.10554 19.9646L10.5081 21.3664C11.3533 22.2112 12.7373 22.2112 13.5918 21.3664L15.0036 19.9553C15.1058 19.8439 15.403 19.714 15.5516 19.714H17.5486C18.7468 19.714 19.722 18.7299 19.722 17.5231V15.5271C19.722 15.3693 19.8428 15.0722 19.9543 14.9701L21.3661 13.559C22.2113 12.705 22.2113 11.3217 21.3661 10.4677L19.945 9.04729C19.8335 8.93589 19.7035 8.63882 19.7035 8.49028V6.48506C19.7035 5.27822 18.7189 4.30346 17.5207 4.30346H15.5145C15.3566 4.30346 15.0593 4.17349 14.9572 4.06209L13.5453 2.64172C12.6908 1.78765 11.3069 1.78765 10.4523 2.63244L9.04052 4.04352C8.92906 4.14564 8.63184 4.27561 8.48322 4.27561H6.48624C5.27876 4.27561 4.29421 5.25037 4.29421 6.44793V8.44387C4.29421 8.5924 4.16417 8.88947 4.05271 8.99159L2.64089 10.4027C1.78637 11.2475 1.78637 12.6307 2.64089 13.4848L4.04342 14.8866L4.17346 15.0258Z" fill="#A1C038"/>
<path d="M4.52012 14.1199L3.00012 12.5999C2.67012 12.2699 2.67012 11.7199 2.99012 11.3999L4.50012 9.86995C4.89012 9.46995 5.18012 8.76995 5.18012 8.19995V6.03995C5.18012 5.56995 5.56012 5.18995 6.03012 5.18995H8.17012C8.73012 5.18995 9.43012 4.88995 9.83012 4.49995L11.3401 2.96995C11.6601 2.63995 12.2101 2.63995 12.5301 2.96995L14.0401 4.48995C14.4301 4.87995 15.1301 5.16995 15.7001 5.16995H17.8501C18.3101 5.16995 18.6901 5.54995 18.6901 6.00995V8.15995C18.6901 8.71995 18.9801 9.41995 19.3701 9.81995L20.8901 11.3399C21.2101 11.6599 21.2101 12.2099 20.8801 12.5299L19.3501 14.0399C18.9501 14.4299 18.6601 15.1299 18.6601 15.6999V17.8399C18.6601 18.2999 18.2701 18.6899 17.8101 18.6899H15.6501C15.0801 18.6899 14.3801 18.9799 13.9801 19.3699L12.4601 20.8899C12.1301 21.2099 11.5801 21.2099 11.2601 20.8899L9.74012 19.3699C9.34012 18.9699 8.64012 18.6799 8.07012 18.6799H5.92012C5.45012 18.6799 5.06012 18.2899 5.06012 17.8199V15.6699C5.06012 15.0899 4.76012 14.3899 4.35012 13.9899L4.52012 14.1199ZM3.46012 15.1899C3.56012 15.2899 3.69012 15.5999 3.69012 15.7699V17.9099C3.69012 19.1999 4.74012 20.2599 6.04012 20.2599H8.18012C8.34012 20.2599 8.66012 20.3899 8.77012 20.5099L10.2801 22.0199C11.1901 22.9299 12.6801 22.9299 13.6001 22.0199L15.1201 20.4999C15.2301 20.3799 15.5501 20.2399 15.7101 20.2399H17.8601C19.1501 20.2399 20.2001 19.1799 20.2001 17.8799V15.7299C20.2001 15.5599 20.3301 15.2399 20.4501 15.1299L21.9701 13.6099C22.8801 12.6899 22.8801 11.1999 21.9701 10.2799L20.4401 8.74995C20.3201 8.62995 20.1801 8.30995 20.1801 8.14995V5.98995C20.1801 4.68995 19.1201 3.63995 17.8301 3.63995H15.6701C15.5001 3.63995 15.1801 3.49995 15.0701 3.37995L13.5501 1.84995C12.6301 0.929947 11.1401 0.929947 10.2201 1.83995L8.70012 3.35995C8.58012 3.46995 8.26012 3.60995 8.10012 3.60995H5.95012C4.65012 3.60995 3.59012 4.65995 3.59012 5.94995V8.09995C3.59012 8.25995 3.45012 8.57995 3.33012 8.68995L1.81012 10.2099C0.890117 11.1199 0.890117 12.6099 1.81012 13.5299L3.32012 15.0399L3.46012 15.1899Z" fill="#A1C038"/>
<path fill-rule="evenodd" clip-rule="evenodd" d="M9.52986 15.53L15.5299 9.52999C15.8199 9.22999 15.8199 8.75999 15.5299 8.45999C15.2299 8.15999 14.7599 8.15999 14.4599 8.45999L8.45986 14.46C8.15986 14.75 8.15986 15.22 8.45986 15.52C8.74986 15.81 9.21986 15.81 9.51986 15.52L9.52986 15.53ZM14.4899 15.5C15.0399 15.5 15.4899 15.05 15.4899 14.5C15.4899 13.94 15.0399 13.5 14.4899 13.5H14.4799C13.9199 13.5 13.4799 13.94 13.4799 14.5C13.4799 15.05 13.9199 15.5 14.4799 15.5H14.4899ZM10.4899 9.5C10.4899 10.05 10.0399 10.5 9.48986 10.5H9.47986C8.91986 10.5 8.47986 10.05 8.47986 9.5C8.47986 8.94 8.91986 8.5 9.47986 8.5H9.48986C10.0399 8.5 10.4899 8.94 10.4899 9.5Z" fill="#004A2C"/>
</svg>
